<?xml version="1.0" encoding="UTF-8"?>
<svg xmlns="http://www.w3.org/2000/svg" xmlns:xlink="http://www.w3.org/1999/xlink" width="520px" height="468px" viewBox="0 0 520 468" version="1.1">
<g id="surface1">
<rect x="0" y="0" width="520" height="468" style="fill:rgb(93.333333%,10.980392%,14.509804%);fill-opacity:1;stroke:none;"/>
<path style=" stroke:none;fill-rule:nonzero;fill:rgb(100%,100%,100%);fill-opacity:1;" d="M 259.980469 233.929688 C 199.160156 199.234375 226.117188 92.300781 284.285156 97.675781 C 272.519531 105.835938 270.8125 121.070312 277.535156 135.183594 C 285.058594 150.984375 276.839844 176.40625 266.667969 182.582031 C 249.949219 192.742188 246.601562 219.824219 259.980469 233.929688 Z M 259.980469 233.929688 "/>
<path style=" stroke:none;fill-rule:nonzero;fill:rgb(93.333333%,10.980392%,14.509804%);fill-opacity:1;" d="M 256.6875 156.71875 L 253.269531 163.964844 L 252.03125 155.53125 L 245.863281 153.378906 L 251.425781 149.175781 L 251.035156 140.59375 L 255.707031 146.4375 L 261.632812 143.285156 L 258.96875 151.09375 L 263.015625 157.726562 Z M 260.324219 233.03125 C 252.96875 227.933594 247.035156 217.3125 244.453125 204.617188 C 241.5 190.050781 243.199219 174.394531 249.125 161.6875 L 247.847656 160.597656 C 241.699219 173.800781 239.933594 190.039062 243.003906 205.152344 C 245.734375 218.585938 251.792969 229.410156 259.632812 234.839844 Z M 260.324219 233.03125 "/>
<path style=" stroke:none;fill-rule:nonzero;fill:rgb(100%,100%,100%);fill-opacity:1;" d="M 260.039062 233.953125 C 265.691406 145.144531 349.359375 146.714844 363.546875 223.054688 C 354.15625 210.46875 342.898438 212.988281 335.035156 225.976562 C 326.226562 240.519531 305.78125 237.824219 298.285156 226.671875 C 285.960938 208.34375 265.847656 212.421875 260.039062 233.953125 Z M 260.039062 233.953125 "/>
<path style=" stroke:none;fill-rule:nonzero;fill:rgb(93.333333%,10.980392%,14.509804%);fill-opacity:1;" d="M 313.421875 205.871094 L 307.257812 203.71875 L 312.816406 199.523438 L 312.425781 190.933594 L 317.105469 196.773438 L 323.03125 193.625 L 320.359375 201.425781 L 324.410156 208.0625 L 318.089844 207.054688 L 314.664062 214.296875 Z M 260.78125 234.117188 C 262.101562 223.097656 267.75 212.199219 275.898438 204.957031 C 285.246094 196.664062 296.796875 194.007812 307.585938 197.6875 L 307.953125 195.714844 C 296.753906 191.90625 284.769531 194.65625 275.070312 203.261719 C 266.453125 210.921875 260.699219 222.042969 259.292969 233.792969 Z M 260.78125 234.117188 "/>
<path style=" stroke:none;fill-rule:nonzero;fill:rgb(100%,100%,100%);fill-opacity:1;" d="M 260.042969 234.035156 C 324.359375 213.851562 349.105469 321.753906 299.707031 363.5625 C 305.675781 347.621094 300.421875 333.941406 288.839844 327.855469 C 275.871094 321.046875 271.453125 293.957031 276.992188 280.890625 C 286.09375 259.402344 277.007812 234.835938 260.042969 234.035156 Z M 260.042969 234.035156 "/>
<path style=" stroke:none;fill-rule:nonzero;fill:rgb(93.333333%,10.980392%,14.509804%);fill-opacity:1;" d="M 296.328125 293.898438 L 295.9375 285.316406 L 300.613281 291.160156 L 306.539062 288.003906 L 303.871094 295.820312 L 307.921875 302.453125 L 301.601562 301.433594 L 298.175781 308.683594 L 296.933594 300.253906 L 290.773438 298.097656 Z M 260.160156 235.039062 C 268.328125 233.324219 277.753906 237.214844 285.371094 245.4375 C 294.105469 254.875 299.542969 268.890625 300.285156 283.871094 L 301.789062 283.742188 C 301.015625 268.179688 295.371094 253.644531 286.3125 243.851562 C 278.253906 235.148438 268.640625 231.199219 259.925781 233.027344 Z M 260.160156 235.039062 "/>
<path style=" stroke:none;fill-rule:nonzero;fill:rgb(100%,100%,100%);fill-opacity:1;" d="M 259.988281 234.074219 C 294.085938 310.402344 225.710938 375.519531 180.996094 325.019531 C 194.070312 327.75 202.082031 316.78125 202.792969 300.03125 C 203.585938 281.273438 221.300781 267.230469 232.214844 270.304688 C 250.167969 275.351562 264.667969 256.097656 259.988281 234.074219 Z M 259.988281 234.074219 "/>
<path style=" stroke:none;fill-rule:nonzero;fill:rgb(93.333333%,10.980392%,14.509804%);fill-opacity:1;" d="M 229.027344 299.148438 L 234.949219 295.996094 L 232.28125 303.804688 L 236.335938 310.445312 L 230.007812 309.433594 L 226.585938 316.679688 L 225.351562 308.246094 L 219.183594 306.097656 L 224.738281 301.890625 L 224.351562 293.316406 Z M 259.316406 234.527344 C 263.046875 244.484375 263.222656 257.785156 259.785156 270.109375 C 255.835938 284.238281 247.640625 295.554688 237.316406 301.132812 L 237.871094 303.027344 C 248.597656 297.21875 257.089844 285.488281 261.191406 270.828125 C 264.832031 257.789062 264.640625 244.230469 260.664062 233.609375 Z M 259.316406 234.527344 "/>
<path style=" stroke:none;fill-rule:nonzero;fill:rgb(100%,100%,100%);fill-opacity:1;" d="M 259.945312 234.003906 C 216.707031 301.367188 149.703125 233.710938 171.464844 160.691406 C 173.578125 178.324219 183.785156 185.21875 195.804688 180.953125 C 209.257812 176.175781 224.628906 194.582031 225.839844 209.546875 C 227.828125 234.15625 245.875 246.820312 259.945312 234.003906 Z M 259.945312 234.003906 "/>
<path style=" stroke:none;fill-rule:nonzero;fill:rgb(93.333333%,10.980392%,14.509804%);fill-opacity:1;" d="M 204.535156 214.367188 L 208.585938 221 L 202.253906 219.984375 L 198.835938 227.238281 L 197.59375 218.800781 L 191.429688 216.648438 L 196.988281 212.457031 L 196.597656 203.871094 L 201.273438 209.707031 L 207.195312 206.5625 Z M 259.417969 233.285156 C 253.554688 241.152344 244.238281 245.484375 234.496094 244.878906 C 223.324219 244.175781 212.816406 237.152344 205.695312 225.617188 L 204.535156 226.917969 C 211.9375 238.894531 222.828125 246.175781 234.425781 246.910156 C 244.734375 247.550781 254.226562 243.121094 260.480469 234.726562 Z M 259.417969 233.285156 "/>
</g>
</svg>
