<svg xmlns="http://www.w3.org/2000/svg" width="115" height="30" viewBox="0 0 115 30" fill="none">
<g filter="url(#filter0_d_1271_19403)">
<path d="M22.2882 8.908C22.0362 8.32 21.8402 7.9 21.4482 7.368C21.0002 6.752 20.3842 6.192 19.7682 5.744C18.0042 4.484 16.1002 4.036 13.9442 4.036C10.5282 4.036 8.68017 5.296 7.72817 6.304C6.35617 7.788 6.16017 9.552 6.16017 10.308C6.16017 11.288 6.41217 11.988 6.55217 12.352C6.97217 13.472 7.67217 14.228 8.68017 14.816C10.0522 15.656 11.6762 16.076 13.1602 16.608C13.8602 16.86 14.5042 17.168 14.7562 17.336C14.9522 17.448 15.2602 17.672 15.2882 18.232C15.2882 18.68 15.0642 18.988 14.9522 19.1C14.6162 19.548 14.0842 19.772 12.9082 19.772C11.6202 19.772 10.7802 19.408 10.3602 19.072C10.0242 18.82 9.77217 18.512 9.38017 17.7L3.80817 18.82C4.08817 19.632 4.34017 20.192 4.87217 20.892C6.02017 22.432 8.45617 24.336 13.0202 24.336C15.9322 24.336 18.8722 23.384 20.4682 20.92C20.8042 20.416 21.4762 19.24 21.4762 17.616C21.4762 15.712 20.6082 14.592 20.1042 14.06C18.7882 12.744 16.7442 12.072 15.0922 11.568C14.4202 11.344 13.0762 10.98 12.6282 10.336C12.5442 10.252 12.4042 10.028 12.4042 9.72C12.4042 9.244 12.8802 8.404 14.1402 8.404C14.3642 8.404 15.5682 8.488 16.2962 8.964C16.7442 9.272 16.9682 9.664 17.2762 10.224L22.2882 8.908ZM26.4033 4.344L23.1833 23.972H28.9233L32.1713 4.344H26.4033ZM51.9102 10.224C51.6582 9.328 51.4622 8.628 50.9862 7.816C49.4742 5.24 46.5902 3.98 43.6782 3.952C38.8062 3.952 35.5022 7.34 34.1302 11.708C33.5982 13.472 33.5142 14.928 33.5142 15.628C33.5142 17.952 34.1862 20.332 35.8102 22.068C37.7702 24.196 40.2062 24.364 41.2422 24.364C42.6422 24.364 44.3782 23.972 45.4702 23.076C45.8342 22.796 46.0582 22.516 46.6182 21.844L46.8142 23.972H49.6982L51.4342 13.276H42.8382L42.0822 17.42H45.2462C45.0782 17.952 44.9382 18.232 44.7702 18.484C44.0142 19.66 42.8382 19.8 42.3342 19.8C41.8862 19.8 41.3822 19.688 40.9902 19.464C40.2622 19.072 39.6742 18.288 39.6462 16.552C39.6462 16.216 39.6462 15.88 39.6742 15.544C39.8422 13.948 39.8982 13.64 40.2622 12.1C40.6262 10.868 40.9902 9.804 42.1102 9.048C42.7542 8.6 43.3422 8.544 43.6782 8.544C44.6862 8.544 45.6382 9.104 46.1422 10C46.2822 10.252 46.4222 10.56 46.5902 11.176L51.9102 10.224ZM55.6624 4.344L52.4144 23.944H57.3144C57.6504 21.872 57.9584 19.8 58.2384 17.7C58.5184 15.74 58.7144 13.752 58.9384 11.764C59.9184 14.004 60.9264 16.272 61.9904 18.512C62.8584 20.332 63.7544 22.152 64.6784 23.972H69.1584L72.4064 4.344H67.5904L65.9664 15.124C65.4904 14.032 65.0144 12.968 64.5104 11.904C64.0064 10.812 63.4464 9.72 62.9144 8.656C62.1864 7.228 61.4864 5.772 60.7584 4.344H55.6624ZM83.0322 4.344L79.8122 23.972H85.5522L88.8002 4.344H83.0322ZM93.0413 4.344L89.7933 23.944H94.6933C95.0293 21.872 95.3373 19.8 95.6173 17.7C95.8973 15.74 96.0933 13.752 96.3173 11.764C97.2973 14.004 98.3053 16.272 99.3693 18.512C100.237 20.332 101.133 22.152 102.057 23.972H106.537L109.785 4.344H104.969L103.345 15.124C102.869 14.032 102.393 12.968 101.889 11.904C101.385 10.812 100.825 9.72 100.293 8.656C99.5653 7.228 98.8653 5.772 98.1373 4.344H93.0413Z" fill="#6FA122"/>
</g>
<defs>
<filter id="filter0_d_1271_19403" x="0.808105" y="0.952026" width="113.977" height="28.412" filterUnits="userSpaceOnUse" color-interpolation-filters="sRGB">
<feFlood flood-opacity="0" result="BackgroundImageFix"/>
<feColorMatrix in="SourceAlpha" type="matrix" values="0 0 0 0 0 0 0 0 0 0 0 0 0 0 0 0 0 0 127 0" result="hardAlpha"/>
<feOffset dx="1" dy="1"/>
<feGaussianBlur stdDeviation="2"/>
<feComposite in2="hardAlpha" operator="out"/>
<feColorMatrix type="matrix" values="0 0 0 0 0.608333 0 0 0 0 0.608333 0 0 0 0 0.608333 0 0 0 0.29 0"/>
<feBlend mode="normal" in2="BackgroundImageFix" result="effect1_dropShadow_1271_19403"/>
<feBlend mode="normal" in="SourceGraphic" in2="effect1_dropShadow_1271_19403" result="shape"/>
</filter>
</defs>
</svg>