<svg xmlns="http://www.w3.org/2000/svg" width="93" height="29" viewBox="0 0 93 29" fill="none">
<g filter="url(#filter0_d_1271_19401)">
<path d="M21.6117 7.908C21.3597 7.32 21.1637 6.9 20.7717 6.368C20.3237 5.752 19.7077 5.192 19.0917 4.744C17.3277 3.484 15.4237 3.036 13.2677 3.036C9.85166 3.036 8.00366 4.296 7.05166 5.304C5.67966 6.788 5.48366 8.552 5.48366 9.308C5.48366 10.288 5.73566 10.988 5.87566 11.352C6.29566 12.472 6.99566 13.228 8.00366 13.816C9.37566 14.656 10.9997 15.076 12.4837 15.608C13.1837 15.86 13.8277 16.168 14.0797 16.336C14.2757 16.448 14.5837 16.672 14.6117 17.232C14.6117 17.68 14.3877 17.988 14.2757 18.1C13.9397 18.548 13.4077 18.772 12.2317 18.772C10.9437 18.772 10.1037 18.408 9.68366 18.072C9.34766 17.82 9.09566 17.512 8.70366 16.7L3.13166 17.82C3.41166 18.632 3.66366 19.192 4.19566 19.892C5.34366 21.432 7.77966 23.336 12.3437 23.336C15.2557 23.336 18.1957 22.384 19.7917 19.92C20.1277 19.416 20.7997 18.24 20.7997 16.616C20.7997 14.712 19.9317 13.592 19.4277 13.06C18.1117 11.744 16.0677 11.072 14.4157 10.568C13.7437 10.344 12.3997 9.98 11.9517 9.336C11.8677 9.252 11.7277 9.028 11.7277 8.72C11.7277 8.244 12.2037 7.404 13.4637 7.404C13.6877 7.404 14.8917 7.488 15.6197 7.964C16.0677 8.272 16.2917 8.664 16.5997 9.224L21.6117 7.908ZM23.0677 3.372L22.3397 7.936H26.9877L24.4677 23.028H30.2357L32.7277 7.908H36.8157L37.5437 3.372H23.0677ZM42.2614 3.4L33.1894 23.028H38.0334L39.7134 19.052H45.2294L45.7614 23H51.5014L48.3374 3.4H42.2614ZM43.9974 9L44.7534 15.048H41.3934L43.9974 9ZM56.135 3.316L52.887 22.972H58.515L59.803 15.524H62.043L63.863 22.972H69.631L67.447 14.712C68.399 14.348 68.819 14.152 69.211 13.844C69.743 13.48 70.163 13.004 70.527 12.444C71.451 11.044 71.535 9.644 71.535 9.028C71.535 7.124 70.611 5.276 69.015 4.268C67.839 3.512 66.635 3.4 65.207 3.316H56.135ZM61.063 7.516H63.415C63.639 7.544 64.843 7.488 65.431 8.356C65.683 8.776 65.739 9.252 65.739 9.42C65.739 9.616 65.683 10.12 65.347 10.568C64.759 11.352 63.947 11.436 62.995 11.492C62.127 11.548 61.287 11.548 60.419 11.52L61.063 7.516ZM73.2708 3.372L72.5428 7.936H77.1908L74.6708 23.028H80.4388L82.9308 7.908H87.0188L87.7468 3.372H73.2708Z" fill="#6FA222"/>
</g>
<defs>
<filter id="filter0_d_1271_19401" x="0.131836" y="0.0360107" width="92.6147" height="28.3" filterUnits="userSpaceOnUse" color-interpolation-filters="sRGB">
<feFlood flood-opacity="0" result="BackgroundImageFix"/>
<feColorMatrix in="SourceAlpha" type="matrix" values="0 0 0 0 0 0 0 0 0 0 0 0 0 0 0 0 0 0 127 0" result="hardAlpha"/>
<feOffset dx="1" dy="1"/>
<feGaussianBlur stdDeviation="2"/>
<feComposite in2="hardAlpha" operator="out"/>
<feColorMatrix type="matrix" values="0 0 0 0 0.608333 0 0 0 0 0.608333 0 0 0 0 0.608333 0 0 0 0.29 0"/>
<feBlend mode="normal" in2="BackgroundImageFix" result="effect1_dropShadow_1271_19401"/>
<feBlend mode="normal" in="SourceGraphic" in2="effect1_dropShadow_1271_19401" result="shape"/>
</filter>
</defs>
</svg>